<svg width="192" height="52" viewBox="0 0 192 52" fill="none" xmlns="http://www.w3.org/2000/svg">
<path d="M19.74 0.519998C23.04 0.519998 24.36 2.68 25.74 6.1C26.4 7.72 27 9.22 27 10.9C27 15.4 22.32 20.92 18.96 20.92C18.06 20.92 16.08 20.2 16.08 18.34C16.08 17.56 16.38 17.2 16.98 17.2C17.04 17.2 17.1 17.2 17.16 17.26C17.22 17.26 17.34 17.32 17.4 17.38C18.78 17.38 20.28 15.58 21.18 14.32C22.38 12.64 23.4 10.6 23.4 8.26C23.4 6.16 22.38 5.44 20.76 5.44C13.62 5.44 3.66 19.18 3.66 28.24C3.66 32.26 5.46 34.06 8.52 34.06C14.34 34.06 20.88 27.88 25.14 23.14L25.26 23.02H25.32C25.38 22.96 25.44 22.96 25.62 22.96C26.28 22.96 26.4 23.68 26.4 24.16C26.4 24.34 26.34 24.58 26.28 24.82C26.28 24.82 26.22 24.88 26.16 25.06C26.16 25.12 26.1 25.18 26.04 25.24C22.5 30.58 15.72 38.38 8.58 38.38C3.54 38.38 0 32.68 0 26.5C0 16 11.34 0.519998 19.74 0.519998ZM31.5548 24.46H27.7748C27.6548 24.46 27.6548 24.4 27.7148 24.28C28.1948 23.38 29.3348 21.76 30.9548 19.42C30.1748 19 28.7348 18.34 28.5548 17.56C28.1348 15.82 29.1548 14.8 29.9348 14.8C29.9948 14.8 30.1148 14.86 30.2948 14.92L31.0748 15.34C32.9348 16.3 34.3148 17.2 37.3748 17.2C38.2748 17.2 39.1748 17.14 40.3148 16.96C41.3348 16.96 41.8148 19.36 41.8148 20.8C41.8148 21.22 41.5748 21.58 41.0948 22C40.0148 22.96 34.6148 28.06 37.0748 29.86C37.3148 29.92 37.4948 29.98 37.6148 29.98C39.4748 29.98 42.0548 25.96 43.3148 24.34C43.3748 24.34 43.4948 24.16 43.5548 24.16H47.2748C47.3948 24.16 47.3948 24.22 47.3348 24.4C46.6748 25.6 41.0948 33.52 38.6948 34C38.2148 34.18 37.8548 34.12 37.4348 34.12C35.8148 34.12 34.9748 33.16 33.9548 31.3C33.5348 30.88 32.9348 29.2 32.9348 28.18C32.9348 25.96 34.3148 23.14 36.9548 21.04C35.8148 21.04 34.7948 20.74 33.7748 20.44C33.7748 20.5 32.6348 23.32 31.7948 24.28C31.6748 24.4 31.6148 24.46 31.5548 24.46ZM59.2622 23.38L62.2622 23.5C62.5622 23.5 62.9822 23.74 62.8022 23.98C60.2222 28 55.4822 33.16 50.3222 33.16C45.7622 33.16 42.9422 29.92 42.9422 25.66C42.9422 22.72 44.2022 20.02 45.7022 17.62C46.6622 16.12 48.6422 13.12 50.9222 13.12C51.5822 13.12 52.3622 13.54 53.0822 14.02C54.7622 15.04 56.8022 16.42 56.8022 18.64C56.8022 22.48 51.5822 26.14 47.9822 26.14C47.4422 26.14 46.9022 26.02 46.4222 25.78C46.4222 26.08 46.3622 26.38 46.3622 26.68C46.3622 28.42 48.7022 29.44 50.3222 29.44C53.3222 29.44 57.1622 26.14 58.9022 23.74C58.9622 23.68 59.0222 23.56 59.0822 23.5C59.1422 23.44 59.2022 23.38 59.2622 23.38ZM53.0222 17.98C53.0222 17.74 52.7222 17.44 52.4222 17.44C50.5622 17.44 48.5222 21.16 47.8022 22.6C50.3822 22.12 53.0222 20.5 53.0222 17.98ZM74.0752 24.22C74.1352 24.16 74.2552 24.1 74.3752 24.1H78.0952C78.2752 24.1 78.2752 24.16 78.1552 24.28C77.4952 25.48 72.6352 32.8 70.2352 33.28C70.1152 33.34 69.9352 33.34 69.6352 33.34C68.4952 33.34 67.7152 32.74 67.1752 32.08C66.8752 31.72 66.5752 31.3 66.3952 30.82C65.9752 31.54 65.4352 32.14 64.8952 32.68C63.9952 33.64 62.6752 34.6 61.2352 34.6C57.8152 34.78 55.7152 28.84 57.9952 25.3C60.0952 21.76 62.4352 17.14 66.6352 15.4C67.4152 15.1 68.0752 14.92 68.6152 14.92C70.4752 14.92 71.4952 16.48 72.2752 18.7C72.0952 18.52 71.9152 18.4 71.7352 18.28C71.3152 17.98 70.8352 17.86 70.1752 17.86C68.7352 17.86 66.7552 18.7 64.4152 22.48C59.7952 29.86 60.3352 31.12 60.5752 31.36C60.8752 31.6 62.9752 29.86 64.8352 26.5C66.5752 23.14 69.1552 19.6 69.7552 19.6C70.4152 19.6 71.9152 20.62 72.5752 22.24C71.8552 23.5 71.2552 24.64 70.7152 25.66C69.8152 27.4 69.2152 29.32 69.7552 29.8C70.4152 30.28 73.0552 25.54 74.0752 24.22ZM86.7239 23.32L90.3839 23.98C85.6439 31.12 80.4239 34 77.4839 34C76.1039 34 75.0239 33.04 74.1839 31.12C73.4039 29.56 73.0439 28.42 73.0439 27.64C73.0439 25.42 75.2639 21.58 78.1439 16.72H77.9639C77.1839 16.72 76.1039 16.18 75.6239 15.22C75.4439 14.92 75.4439 14.5 75.5039 14.08C75.5639 13.66 76.2239 13.3 77.4839 13.06C78.7439 12.76 79.8239 12.7 80.7239 12.7H81.2639C82.7039 10.9 87.2039 4.54 89.1239 2.32C90.0839 1.24 90.8039 0.7 91.2839 0.7C92.5439 0.7 93.2639 3.58 93.2639 4.66C93.2639 5.14 93.0239 5.62 92.6039 6.1L87.0239 13.18C87.4439 13.36 88.1039 13.36 88.1639 13.54C88.9439 13.96 88.7639 14.44 88.7639 15.64C88.7639 16.3 88.5839 16.66 88.2839 16.72C87.1439 16.96 86.1239 16.9 83.5439 16.96C79.6439 22.24 76.7639 26.38 76.7639 28.48C76.7639 29.2 77.3039 29.38 77.7839 29.56C77.9639 29.62 78.0839 29.74 78.5039 29.74C79.6439 29.74 82.0439 28.84 86.7239 23.32ZM102.094 23.38L105.094 23.5C105.394 23.5 105.814 23.74 105.634 23.98C103.054 28 98.3142 33.16 93.1542 33.16C88.5942 33.16 85.7742 29.92 85.7742 25.66C85.7742 22.72 87.0342 20.02 88.5342 17.62C89.4942 16.12 91.4742 13.12 93.7542 13.12C94.4142 13.12 95.1942 13.54 95.9142 14.02C97.5942 15.04 99.6342 16.42 99.6342 18.64C99.6342 22.48 94.4142 26.14 90.8142 26.14C90.2742 26.14 89.7342 26.02 89.2542 25.78C89.2542 26.08 89.1942 26.38 89.1942 26.68C89.1942 28.42 91.5342 29.44 93.1542 29.44C96.1542 29.44 99.9942 26.14 101.734 23.74C101.794 23.68 101.854 23.56 101.914 23.5C101.974 23.44 102.034 23.38 102.094 23.38ZM95.8542 17.98C95.8542 17.74 95.5542 17.44 95.2542 17.44C93.3942 17.44 91.3542 21.16 90.6342 22.6C93.2142 22.12 95.8542 20.5 95.8542 17.98ZM96.8428 47.86C100.503 47.86 104.823 39.94 106.563 36.58C103.023 38.02 95.1028 41.98 95.1028 45.88C95.1028 47.02 95.6428 47.86 96.8428 47.86ZM121.023 24.16L124.983 24.28C120.963 29.92 115.563 33.58 112.203 35.68C109.323 42.28 104.763 51.34 96.5428 51.34C94.9228 51.1 94.0828 50.26 93.3628 48.88C92.7028 47.74 91.8628 46.06 91.8628 44.68C91.8628 40.42 98.9428 36.34 102.243 34.78C103.443 34.12 104.703 33.82 106.083 33.16C106.983 32.74 108.003 32.26 108.963 31.72C110.583 28.18 111.963 24.4 113.163 20.74C112.803 20.44 112.623 20.14 112.623 19.78C112.623 18.82 115.023 14.92 116.223 14.92C117.663 14.92 119.103 17.32 119.103 18.52C119.103 18.94 118.023 21.76 117.243 23.68C116.583 25.36 114.903 28.54 114.423 29.5C115.383 29.02 117.243 28.6 121.023 24.16ZM117.303 12.4C117.123 12.64 117.183 12.88 117.363 13.18L118.743 14.74C118.803 14.86 118.923 14.92 119.043 14.92C119.103 14.92 119.223 14.86 119.403 14.68C120.483 13.3 124.323 8.62 125.223 8.2C125.043 7.78 124.863 7.36 124.623 7C124.203 6.34 123.663 5.8 122.883 5.8C122.583 5.8 122.163 5.74 121.263 6.88C120.843 7.42 120.363 8.08 119.883 8.74C118.863 10.18 117.783 11.68 117.303 12.4ZM136.419 24.22C136.479 24.16 136.599 24.1 136.719 24.1H140.439C140.619 24.1 140.619 24.16 140.499 24.28C139.839 25.48 134.979 32.8 132.579 33.28C132.459 33.34 132.279 33.34 131.979 33.34C130.839 33.34 130.059 32.74 129.519 32.08C129.219 31.72 128.919 31.3 128.739 30.82C128.319 31.54 127.779 32.14 127.239 32.68C126.339 33.64 125.019 34.6 123.579 34.6C120.159 34.78 118.059 28.84 120.339 25.3C122.439 21.76 124.779 17.14 128.979 15.4C129.759 15.1 130.419 14.92 130.959 14.92C132.819 14.92 133.839 16.48 134.619 18.7C134.439 18.52 134.259 18.4 134.079 18.28C133.659 17.98 133.179 17.86 132.519 17.86C131.079 17.86 129.099 18.7 126.759 22.48C122.139 29.86 122.679 31.12 122.919 31.36C123.219 31.6 125.319 29.86 127.179 26.5C128.919 23.14 131.499 19.6 132.099 19.6C132.759 19.6 134.259 20.62 134.919 22.24C134.199 23.5 133.599 24.64 133.059 25.66C132.159 27.4 131.559 29.32 132.099 29.8C132.759 30.28 135.399 25.54 136.419 24.22ZM139.948 24.82H136.168C136.048 24.82 136.048 24.76 136.108 24.64C137.248 22.54 143.848 12.88 145.828 12.88C148.288 13.54 146.608 17.98 147.568 17.98C149.368 17.98 150.568 13.06 151.708 13.36C152.848 13.78 153.748 14.38 153.508 16C153.328 16.9 153.328 17.8 153.148 18.58C153.088 19.06 152.968 19.54 152.908 19.96C153.688 19.06 154.408 18.1 155.188 17.2C156.388 15.58 157.768 13.6 158.668 11.98C158.848 11.8 158.968 11.74 159.088 11.74C159.148 11.74 159.208 11.8 159.388 11.86C160.168 12.52 161.728 13.66 161.548 14.44C161.308 15.52 157.528 27.16 158.668 27.4C159.688 27.52 161.848 25.48 163.408 23.44C164.428 22.3 165.448 20.92 166.588 19.36L167.428 22.06C167.608 22.6 167.668 23.32 167.488 23.74C166.228 26.26 160.948 32.44 157.048 32.62C153.868 32.62 154.468 28.24 154.948 26.32C154.468 26.68 153.988 27.16 153.508 27.82C152.608 28.96 151.588 30.58 150.628 33.22C150.448 33.76 150.028 34 149.488 34C149.308 34 149.128 34 149.068 33.94C147.928 33.4 146.488 32.44 147.028 30.76C147.808 28.12 148.288 25.96 147.988 24.94C147.448 25.78 146.968 26.62 146.488 27.46C145.588 28.84 144.628 30.64 143.848 32.02C143.668 32.38 143.368 32.56 142.888 32.56C142.648 32.56 142.468 32.5 142.348 32.44C141.328 31.78 139.888 30.52 141.028 28.6C143.008 25 144.148 22.48 143.488 20.38C143.008 20.98 142.588 21.58 142.168 22.12C141.448 23.02 140.608 24.1 140.188 24.64C140.128 24.76 140.068 24.82 139.948 24.82ZM185.386 6.4C180.646 6.4 174.226 10.12 170.866 13.84C169.606 15.28 168.166 17.38 168.166 19.36C168.166 21.04 170.326 22.3 172.126 22.9C173.986 23.56 174.646 23.68 175.906 23.92C180.466 24.88 181.906 26.62 181.906 31.48C181.906 36.76 175.246 38.56 171.886 38.56C168.586 38.56 164.206 37.12 164.206 32.32C164.206 31.78 164.266 31.12 164.446 30.58C164.686 30.04 164.986 29.56 165.706 29.56C166.366 29.56 166.606 30.64 166.606 31.12C166.606 33.34 169.846 33.94 171.586 33.94C174.046 33.94 179.026 32.86 179.026 29.62C179.026 29.2 178.486 29.02 178.246 28.84C177.766 28.6 177.166 28.54 176.926 28.36C175.966 28.12 175.006 28 173.806 27.76C170.206 27.1 166.306 25.72 165.526 21.64C165.286 20.44 165.046 19.18 165.046 17.92C165.046 9.88 177.106 1.12 185.026 1.12C190.246 1.12 190.906 4.36 191.566 8.56C191.806 9.7 191.986 10.78 191.986 11.56C191.986 16 186.046 21.1 182.446 21.1C181.246 21.1 179.326 20.2 179.326 18.34C179.326 17.38 179.686 17.32 180.586 17.32C180.646 17.38 180.766 17.38 180.946 17.38C182.506 17.38 184.606 15.64 185.806 14.44C187.306 13 188.686 10.96 188.686 8.62C188.686 6.7 187.006 6.4 185.386 6.4Z" fill="white"/>
</svg>
