<svg width="297" height="52" viewBox="0 0 297 52" fill="none" xmlns="http://www.w3.org/2000/svg">
<path d="M19.44 17.86C20.58 17.86 21.78 16.24 22.5 15.22C23.64 13.72 24.48 11.98 24.48 10C24.48 7.54 22.74 6.64 21 6.64C13.86 6.64 3.48 20.02 3.48 29.14C3.48 32.5 4.86 34.18 7.56 34.18C10.56 34.18 13.68 31.54 16.32 28.9C17.58 27.52 18.78 26.26 19.68 25.3C20.58 24.28 21.36 23.56 21.84 23.56C23.16 23.56 23.46 25.84 23.46 26.8C23.46 27.46 22.98 28.24 22.56 28.72C20.58 31.72 13.44 44.26 13.44 47.68C13.44 47.74 13.44 47.8 13.5 47.8C13.5 47.86 13.5 47.92 13.56 47.98C13.56 48.52 13.44 49.24 12.72 49.24C11.34 49.24 9.96 47.32 9.96 45.64C9.96 43 12.42 38.5 13.86 35.62C12 37.24 9.78 38.44 7.38 38.44C4.98 38.44 4.08 37.54 2.7 35.8C2.28 35.26 1.98 34.72 1.56 34.06H1.5L1.44 33.94C0.48 32.08 0 29.98 0 27.76C0 19.36 6.42 8.92 13.08 4.3C15.18 2.86 17.64 1.72 20.1 1.72C24.66 1.72 27.96 8.26 27.96 12.28C27.96 16.3 24 21.28 20.94 21.28C20.04 21.28 18.06 20.5 18.06 18.76C18.06 18.04 18.42 17.68 19.14 17.68C19.2 17.74 19.26 17.74 19.26 17.74H19.32L19.38 17.8C19.44 17.8 19.44 17.8 19.44 17.86ZM42.5044 23.38L45.5044 23.5C45.8044 23.5 46.2244 23.74 46.0444 23.98C43.4644 28 38.7244 33.16 33.5644 33.16C29.0044 33.16 26.1844 29.92 26.1844 25.66C26.1844 22.72 27.4444 20.02 28.9444 17.62C29.9044 16.12 31.8844 13.12 34.1644 13.12C34.8244 13.12 35.6044 13.54 36.3244 14.02C38.0044 15.04 40.0444 16.42 40.0444 18.64C40.0444 22.48 34.8244 26.14 31.2244 26.14C30.6844 26.14 30.1444 26.02 29.6644 25.78C29.6644 26.08 29.6044 26.38 29.6044 26.68C29.6044 28.42 31.9444 29.44 33.5644 29.44C36.5644 29.44 40.4044 26.14 42.1444 23.74C42.2044 23.68 42.2644 23.56 42.3244 23.5C42.3844 23.44 42.4444 23.38 42.5044 23.38ZM36.2644 17.98C36.2644 17.74 35.9644 17.44 35.6644 17.44C33.8044 17.44 31.7644 21.16 31.0444 22.6C33.6244 22.12 36.2644 20.5 36.2644 17.98ZM44.1173 19.78C45.9773 16.6 47.3573 15.04 48.2573 15.04C49.0973 15.04 50.1773 17.14 50.1773 18.28C50.1773 18.7 49.9373 19.06 49.6373 19.48C46.3973 23.32 46.1573 23.92 45.3773 26.32C47.7773 23.14 48.6773 22.18 51.6173 19.12C54.4973 16.12 55.9373 15.94 57.3173 15.94C57.5573 15.94 59.1173 17.98 59.1173 18.76C59.1173 19.18 58.9373 19.66 58.5173 20.08C54.9773 23.98 54.2573 26.32 54.2573 27.94C54.2573 28.48 54.4973 28.78 54.9773 28.78C55.9973 28.78 57.9173 27.4 59.7773 24.34C59.8373 24.28 59.9573 24.22 60.0773 24.22H63.7973C63.9773 24.22 63.9773 24.28 63.8573 24.4C63.6173 24.82 62.9573 25.78 62.0573 27.16L62.1173 27.1L61.9973 27.22C60.4373 29.44 57.2573 32.32 54.2573 32.32C52.5773 32.26 51.4973 30.7 51.2573 28.36C51.0773 26.92 51.0773 25.24 52.2173 23.08C50.4773 24.94 47.9573 28.48 43.9373 33.52C43.6373 33.82 43.3373 34 43.0373 34C42.6173 34 42.1973 33.46 41.7173 32.32C41.2373 31.18 41.2373 28.48 41.2373 27.46C41.2373 25.48 42.1973 22.96 44.1173 19.78ZM75.8442 23.38L78.8442 23.5C79.1442 23.5 79.5642 23.74 79.3842 23.98C76.8042 28 72.0642 33.16 66.9042 33.16C62.3442 33.16 59.5242 29.92 59.5242 25.66C59.5242 22.72 60.7842 20.02 62.2842 17.62C63.2442 16.12 65.2242 13.12 67.5042 13.12C68.1642 13.12 68.9442 13.54 69.6642 14.02C71.3442 15.04 73.3842 16.42 73.3842 18.64C73.3842 22.48 68.1642 26.14 64.5642 26.14C64.0242 26.14 63.4842 26.02 63.0042 25.78C63.0042 26.08 62.9442 26.38 62.9442 26.68C62.9442 28.42 65.2842 29.44 66.9042 29.44C69.9042 29.44 73.7442 26.14 75.4842 23.74C75.5442 23.68 75.6042 23.56 75.6642 23.5C75.7242 23.44 75.7842 23.38 75.8442 23.38ZM69.6042 17.98C69.6042 17.74 69.3042 17.44 69.0042 17.44C67.1442 17.44 65.1042 21.16 64.3842 22.6C66.9642 22.12 69.6042 20.5 69.6042 17.98ZM78.9572 24.46H75.1772C75.0572 24.46 75.0572 24.4 75.1172 24.28C75.5972 23.38 76.7372 21.76 78.3572 19.42C77.5772 19 76.1372 18.34 75.9572 17.56C75.5372 15.82 76.5572 14.8 77.3372 14.8C77.3972 14.8 77.5172 14.86 77.6972 14.92L78.4772 15.34C80.3372 16.3 81.7172 17.2 84.7772 17.2C85.6772 17.2 86.5772 17.14 87.7172 16.96C88.7372 16.96 89.2172 19.36 89.2172 20.8C89.2172 21.22 88.9772 21.58 88.4972 22C87.4172 22.96 82.0172 28.06 84.4772 29.86C84.7172 29.92 84.8972 29.98 85.0172 29.98C86.8772 29.98 89.4572 25.96 90.7172 24.34C90.7772 24.34 90.8972 24.16 90.9572 24.16H94.6772C94.7972 24.16 94.7972 24.22 94.7372 24.4C94.0772 25.6 88.4972 33.52 86.0972 34C85.6172 34.18 85.2572 34.12 84.8372 34.12C83.2172 34.12 82.3772 33.16 81.3572 31.3C80.9372 30.88 80.3372 29.2 80.3372 28.18C80.3372 25.96 81.7172 23.14 84.3572 21.04C83.2172 21.04 82.1972 20.74 81.1772 20.44C81.1772 20.5 80.0372 23.32 79.1972 24.28C79.0772 24.4 79.0172 24.46 78.9572 24.46ZM106.185 24.22C106.245 24.16 106.365 24.1 106.485 24.1H110.205C110.385 24.1 110.385 24.16 110.265 24.28C109.605 25.48 104.745 32.8 102.345 33.28C102.225 33.34 102.045 33.34 101.745 33.34C100.605 33.34 99.8245 32.74 99.2845 32.08C98.9845 31.72 98.6845 31.3 98.5045 30.82C98.0845 31.54 97.5445 32.14 97.0045 32.68C96.1045 33.64 94.7845 34.6 93.3445 34.6C89.9245 34.78 87.8245 28.84 90.1045 25.3C92.2045 21.76 94.5445 17.14 98.7445 15.4C99.5245 15.1 100.185 14.92 100.725 14.92C102.585 14.92 103.605 16.48 104.385 18.7C104.205 18.52 104.025 18.4 103.845 18.28C103.425 17.98 102.945 17.86 102.285 17.86C100.845 17.86 98.8645 18.7 96.5245 22.48C91.9045 29.86 92.4445 31.12 92.6845 31.36C92.9845 31.6 95.0845 29.86 96.9445 26.5C98.6845 23.14 101.265 19.6 101.865 19.6C102.525 19.6 104.025 20.62 104.685 22.24C103.965 23.5 103.365 24.64 102.825 25.66C101.925 27.4 101.325 29.32 101.865 29.8C102.525 30.28 105.165 25.54 106.185 24.22ZM118.833 23.32L122.493 23.98C117.753 31.12 112.533 34 109.593 34C108.213 34 107.133 33.04 106.293 31.12C105.513 29.56 105.153 28.42 105.153 27.64C105.153 25.42 107.373 21.58 110.253 16.72H110.073C109.293 16.72 108.213 16.18 107.733 15.22C107.553 14.92 107.553 14.5 107.613 14.08C107.673 13.66 108.333 13.3 109.593 13.06C110.853 12.76 111.933 12.7 112.833 12.7H113.373C114.813 10.9 119.313 4.54 121.233 2.32C122.193 1.24 122.913 0.7 123.393 0.7C124.653 0.7 125.373 3.58 125.373 4.66C125.373 5.14 125.133 5.62 124.713 6.1L119.133 13.18C119.553 13.36 120.213 13.36 120.273 13.54C121.053 13.96 120.873 14.44 120.873 15.64C120.873 16.3 120.693 16.66 120.393 16.72C119.253 16.96 118.233 16.9 115.653 16.96C111.753 22.24 108.873 26.38 108.873 28.48C108.873 29.2 109.413 29.38 109.893 29.56C110.073 29.62 110.193 29.74 110.613 29.74C111.753 29.74 114.153 28.84 118.833 23.32ZM134.204 23.38L137.204 23.5C137.504 23.5 137.924 23.74 137.744 23.98C135.164 28 130.424 33.16 125.264 33.16C120.704 33.16 117.884 29.92 117.884 25.66C117.884 22.72 119.144 20.02 120.644 17.62C121.604 16.12 123.584 13.12 125.864 13.12C126.524 13.12 127.304 13.54 128.024 14.02C129.704 15.04 131.744 16.42 131.744 18.64C131.744 22.48 126.524 26.14 122.924 26.14C122.384 26.14 121.844 26.02 121.364 25.78C121.364 26.08 121.304 26.38 121.304 26.68C121.304 28.42 123.644 29.44 125.264 29.44C128.264 29.44 132.104 26.14 133.844 23.74C133.904 23.68 133.964 23.56 134.024 23.5C134.084 23.44 134.144 23.38 134.204 23.38ZM127.964 17.98C127.964 17.74 127.664 17.44 127.364 17.44C125.504 17.44 123.464 21.16 122.744 22.6C125.324 22.12 127.964 20.5 127.964 17.98ZM146.832 19.78C148.692 16.6 150.072 15.04 150.972 15.04C151.812 15.04 152.892 17.14 152.892 18.28C152.892 18.7 152.652 19.06 152.352 19.48C149.112 23.32 148.872 23.92 148.092 26.32C150.492 23.14 151.392 22.18 154.332 19.12C157.212 16.12 158.652 15.94 160.032 15.94C160.272 15.94 161.832 17.98 161.832 18.76C161.832 19.18 161.652 19.66 161.232 20.08C157.692 23.98 156.972 26.32 156.972 27.94C156.972 28.48 157.212 28.78 157.692 28.78C158.712 28.78 160.632 27.4 162.492 24.34C162.552 24.28 162.672 24.22 162.792 24.22H166.512C166.692 24.22 166.692 24.28 166.572 24.4C166.332 24.82 165.672 25.78 164.772 27.16L164.832 27.1L164.712 27.22C163.152 29.44 159.972 32.32 156.972 32.32C155.292 32.26 154.212 30.7 153.972 28.36C153.792 26.92 153.792 25.24 154.932 23.08C153.192 24.94 150.672 28.48 146.652 33.52C146.352 33.82 146.052 34 145.752 34C145.332 34 144.912 33.46 144.432 32.32C143.952 31.18 143.952 28.48 143.952 27.46C143.952 25.48 144.912 22.96 146.832 19.78ZM178.559 23.38L181.559 23.5C181.859 23.5 182.279 23.74 182.099 23.98C179.519 28 174.779 33.16 169.619 33.16C165.059 33.16 162.239 29.92 162.239 25.66C162.239 22.72 163.499 20.02 164.999 17.62C165.959 16.12 167.939 13.12 170.219 13.12C170.879 13.12 171.659 13.54 172.379 14.02C174.059 15.04 176.099 16.42 176.099 18.64C176.099 22.48 170.879 26.14 167.279 26.14C166.739 26.14 166.199 26.02 165.719 25.78C165.719 26.08 165.659 26.38 165.659 26.68C165.659 28.42 167.999 29.44 169.619 29.44C172.619 29.44 176.459 26.14 178.199 23.74C178.259 23.68 178.319 23.56 178.379 23.5C178.439 23.44 178.499 23.38 178.559 23.38ZM172.319 17.98C172.319 17.74 172.019 17.44 171.719 17.44C169.859 17.44 167.819 21.16 167.099 22.6C169.679 22.12 172.319 20.5 172.319 17.98ZM177.832 31.66C177.112 29.68 176.752 28.3 176.752 27.58C176.752 25.84 177.772 23.2 179.752 19.66C181.732 16.18 183.172 14.44 184.072 14.44C184.492 14.44 184.972 14.98 185.452 16C185.932 16.96 186.112 17.8 186.052 18.46C186.052 18.88 185.812 19.36 185.332 19.96C182.152 23.92 180.472 26.86 180.292 28.72C180.232 29.26 180.412 29.56 180.892 29.56C181.972 29.56 183.832 28.12 186.532 25.18C186.892 23.08 187.792 20.86 189.292 18.46C190.732 16.18 191.872 15.04 192.652 15.04C193.552 15.04 194.572 16.6 194.392 18.46C194.332 19.72 192.952 21.94 190.192 25.12C189.772 27.04 189.952 29.14 190.852 29.14C192.352 29.14 194.152 27.76 196.372 24.94C196.312 24.28 196.312 23.62 196.372 22.9C196.672 20.74 199.372 13.3 201.772 13.3C202.912 13.3 203.392 16.12 203.392 17.14C203.392 19.6 201.412 22.9 200.032 24.88C200.452 25.18 200.872 25.3 201.292 25.3C203.152 25.3 205.372 24.4 208.192 20.86H211.792C209.872 26.44 204.712 29.2 200.692 29.2C199.432 29.2 198.532 28.78 197.872 27.88C194.812 31.66 192.232 33.58 190.072 33.58C187.972 33.58 186.772 31.18 186.532 28.36C183.952 32.14 181.852 34 180.112 34C179.152 34 178.372 33.22 177.832 31.66ZM201.374 47.86C205.034 47.86 209.354 39.94 211.094 36.58C207.554 38.02 199.634 41.98 199.634 45.88C199.634 47.02 200.174 47.86 201.374 47.86ZM225.554 24.16L229.514 24.28C225.494 29.92 220.094 33.58 216.734 35.68C213.854 42.28 209.294 51.34 201.074 51.34C199.454 51.1 198.614 50.26 197.894 48.88C197.234 47.74 196.394 46.06 196.394 44.68C196.394 40.42 203.474 36.34 206.774 34.78C207.974 34.12 209.234 33.82 210.614 33.16C211.514 32.74 212.534 32.26 213.494 31.72C215.114 28.18 216.494 24.4 217.694 20.74C217.334 20.44 217.154 20.14 217.154 19.78C217.154 18.82 219.554 14.92 220.754 14.92C222.194 14.92 223.634 17.32 223.634 18.52C223.634 18.94 222.554 21.76 221.774 23.68C221.114 25.36 219.434 28.54 218.954 29.5C219.914 29.02 221.774 28.6 225.554 24.16ZM221.834 12.4C221.654 12.64 221.714 12.88 221.894 13.18L223.274 14.74C223.334 14.86 223.454 14.92 223.574 14.92C223.634 14.92 223.754 14.86 223.934 14.68C225.014 13.3 228.854 8.62 229.754 8.2C229.574 7.78 229.394 7.36 229.154 7C228.734 6.34 228.194 5.8 227.414 5.8C227.114 5.8 226.694 5.74 225.794 6.88C225.374 7.42 224.894 8.08 224.414 8.74C223.394 10.18 222.314 11.68 221.834 12.4ZM240.95 24.22C241.01 24.16 241.13 24.1 241.25 24.1H244.97C245.15 24.1 245.15 24.16 245.03 24.28C244.37 25.48 239.51 32.8 237.11 33.28C236.99 33.34 236.81 33.34 236.51 33.34C235.37 33.34 234.59 32.74 234.05 32.08C233.75 31.72 233.45 31.3 233.27 30.82C232.85 31.54 232.31 32.14 231.77 32.68C230.87 33.64 229.55 34.6 228.11 34.6C224.69 34.78 222.59 28.84 224.87 25.3C226.97 21.76 229.31 17.14 233.51 15.4C234.29 15.1 234.95 14.92 235.49 14.92C237.35 14.92 238.37 16.48 239.15 18.7C238.97 18.52 238.79 18.4 238.61 18.28C238.19 17.98 237.71 17.86 237.05 17.86C235.61 17.86 233.63 18.7 231.29 22.48C226.67 29.86 227.21 31.12 227.45 31.36C227.75 31.6 229.85 29.86 231.71 26.5C233.45 23.14 236.03 19.6 236.63 19.6C237.29 19.6 238.79 20.62 239.45 22.24C238.73 23.5 238.13 24.64 237.59 25.66C236.69 27.4 236.09 29.32 236.63 29.8C237.29 30.28 239.93 25.54 240.95 24.22ZM244.479 24.82H240.699C240.579 24.82 240.579 24.76 240.639 24.64C241.779 22.54 248.379 12.88 250.359 12.88C252.819 13.54 251.139 17.98 252.099 17.98C253.899 17.98 255.099 13.06 256.239 13.36C257.379 13.78 258.279 14.38 258.039 16C257.859 16.9 257.859 17.8 257.679 18.58C257.619 19.06 257.499 19.54 257.439 19.96C258.219 19.06 258.939 18.1 259.719 17.2C260.919 15.58 262.299 13.6 263.199 11.98C263.379 11.8 263.499 11.74 263.619 11.74C263.679 11.74 263.739 11.8 263.919 11.86C264.699 12.52 266.259 13.66 266.079 14.44C265.839 15.52 262.059 27.16 263.199 27.4C264.219 27.52 266.379 25.48 267.939 23.44C268.959 22.3 269.979 20.92 271.119 19.36L271.959 22.06C272.139 22.6 272.199 23.32 272.019 23.74C270.759 26.26 265.479 32.44 261.579 32.62C258.399 32.62 258.999 28.24 259.479 26.32C258.999 26.68 258.519 27.16 258.039 27.82C257.139 28.96 256.119 30.58 255.159 33.22C254.979 33.76 254.559 34 254.019 34C253.839 34 253.659 34 253.599 33.94C252.459 33.4 251.019 32.44 251.559 30.76C252.339 28.12 252.819 25.96 252.519 24.94C251.979 25.78 251.499 26.62 251.019 27.46C250.119 28.84 249.159 30.64 248.379 32.02C248.199 32.38 247.899 32.56 247.419 32.56C247.179 32.56 246.999 32.5 246.879 32.44C245.859 31.78 244.419 30.52 245.559 28.6C247.539 25 248.679 22.48 248.019 20.38C247.539 20.98 247.119 21.58 246.699 22.12C245.979 23.02 245.139 24.1 244.719 24.64C244.659 24.76 244.599 24.82 244.479 24.82ZM289.918 6.4C285.178 6.4 278.758 10.12 275.398 13.84C274.138 15.28 272.698 17.38 272.698 19.36C272.698 21.04 274.858 22.3 276.658 22.9C278.518 23.56 279.178 23.68 280.438 23.92C284.998 24.88 286.438 26.62 286.438 31.48C286.438 36.76 279.778 38.56 276.418 38.56C273.118 38.56 268.738 37.12 268.738 32.32C268.738 31.78 268.798 31.12 268.978 30.58C269.218 30.04 269.518 29.56 270.238 29.56C270.898 29.56 271.138 30.64 271.138 31.12C271.138 33.34 274.378 33.94 276.118 33.94C278.578 33.94 283.558 32.86 283.558 29.62C283.558 29.2 283.018 29.02 282.778 28.84C282.298 28.6 281.698 28.54 281.458 28.36C280.498 28.12 279.538 28 278.338 27.76C274.738 27.1 270.838 25.72 270.058 21.64C269.818 20.44 269.578 19.18 269.578 17.92C269.578 9.88 281.638 1.12 289.558 1.12C294.778 1.12 295.438 4.36 296.098 8.56C296.338 9.7 296.518 10.78 296.518 11.56C296.518 16 290.578 21.1 286.978 21.1C285.778 21.1 283.858 20.2 283.858 18.34C283.858 17.38 284.218 17.32 285.118 17.32C285.178 17.38 285.298 17.38 285.478 17.38C287.038 17.38 289.138 15.64 290.338 14.44C291.838 13 293.218 10.96 293.218 8.62C293.218 6.7 291.538 6.4 289.918 6.4Z" fill="white"/>
</svg>
