<svg width="162" height="51" viewBox="0 0 162 51" fill="none" xmlns="http://www.w3.org/2000/svg">
<path d="M34.7 8.7C30.56 13.8 19.82 29.16 19.82 35.34C19.82 35.52 19.88 35.76 19.94 36C20.06 36.18 20.12 36.42 20.12 36.66C20.12 37.38 19.52 37.8 19.04 37.8C17.36 37.8 16.7 34.8 16.7 33.54C16.7 26.7 22.16 17.28 26.66 11.04C17.36 18.06 9.44 26.4 3.14 36.3C3.08 36.36 3.02 36.48 2.96 36.54C2.9 36.72 2.84 36.78 2.78 36.84C2.6 37.14 2.36 37.26 2.06 37.26C0.92 37.26 0.44 35.22 0.44 34.5C0.44 28.38 14.18 4.02 16.64 4.02C17.06 4.02 17.24 4.32 17.48 4.62C17.96 5.52 18.38 6.9 18.38 7.86C18.38 8.4 18.14 8.94 17.72 9.36C17.54 9.54 17.48 9.66 17.42 9.72C13.4 14.52 11.84 17.88 8.66 23.46C11.3 20.34 27.86 2.52 32 2.52C33.56 2.52 35.3 5.64 35.3 7.26C35.3 7.92 35 8.4 34.7 8.7ZM43.5552 22.38L46.5552 22.5C46.8552 22.5 47.2752 22.74 47.0952 22.98C44.5152 27 39.7752 32.16 34.6152 32.16C30.0552 32.16 27.2352 28.92 27.2352 24.66C27.2352 21.72 28.4952 19.02 29.9952 16.62C30.9552 15.12 32.9352 12.12 35.2152 12.12C35.8752 12.12 36.6552 12.54 37.3752 13.02C39.0552 14.04 41.0952 15.42 41.0952 17.64C41.0952 21.48 35.8752 25.14 32.2752 25.14C31.7352 25.14 31.1952 25.02 30.7152 24.78C30.7152 25.08 30.6552 25.38 30.6552 25.68C30.6552 27.42 32.9952 28.44 34.6152 28.44C37.6152 28.44 41.4552 25.14 43.1952 22.74C43.2552 22.68 43.3152 22.56 43.3752 22.5C43.4352 22.44 43.4952 22.38 43.5552 22.38ZM37.3152 16.98C37.3152 16.74 37.0152 16.44 36.7152 16.44C34.8552 16.44 32.8152 20.16 32.0952 21.6C34.6752 21.12 37.3152 19.5 37.3152 16.98ZM42.8281 30.66C42.1081 28.68 41.7481 27.3 41.7481 26.58C41.7481 24.84 42.7681 22.2 44.7481 18.66C46.7281 15.18 48.1681 13.44 49.0681 13.44C49.4881 13.44 49.9681 13.98 50.4481 15C50.9281 15.96 51.1081 16.8 51.0481 17.46C51.0481 17.88 50.8081 18.36 50.3281 18.96C47.1481 22.92 45.4681 25.86 45.2881 27.72C45.2281 28.26 45.4081 28.56 45.8881 28.56C46.9681 28.56 48.8281 27.12 51.5281 24.18C51.8881 22.08 52.7881 19.86 54.2881 17.46C55.7281 15.18 56.8681 14.04 57.6481 14.04C58.5481 14.04 59.5681 15.6 59.3881 17.46C59.3281 18.72 57.9481 20.94 55.1881 24.12C54.7681 26.04 54.9481 28.14 55.8481 28.14C57.3481 28.14 59.1481 26.76 61.3681 23.94C61.3081 23.28 61.3081 22.62 61.3681 21.9C61.6681 19.74 64.3681 12.3 66.7681 12.3C67.9081 12.3 68.3881 15.12 68.3881 16.14C68.3881 18.6 66.4081 21.9 65.0281 23.88C65.4481 24.18 65.8681 24.3 66.2881 24.3C68.1481 24.3 70.3681 23.4 73.1881 19.86H76.7881C74.8681 25.44 69.7081 28.2 65.6881 28.2C64.4281 28.2 63.5281 27.78 62.8681 26.88C59.8081 30.66 57.2281 32.58 55.0681 32.58C52.9681 32.58 51.7681 30.18 51.5281 27.36C48.9481 31.14 46.8481 33 45.1081 33C44.1481 33 43.3681 32.22 42.8281 30.66ZM66.3702 46.86C70.0302 46.86 74.3502 38.94 76.0902 35.58C72.5502 37.02 64.6302 40.98 64.6302 44.88C64.6302 46.02 65.1702 46.86 66.3702 46.86ZM90.5502 23.16L94.5102 23.28C90.4902 28.92 85.0902 32.58 81.7302 34.68C78.8502 41.28 74.2902 50.34 66.0702 50.34C64.4502 50.1 63.6102 49.26 62.8902 47.88C62.2302 46.74 61.3902 45.06 61.3902 43.68C61.3902 39.42 68.4702 35.34 71.7702 33.78C72.9702 33.12 74.2302 32.82 75.6102 32.16C76.5102 31.74 77.5302 31.26 78.4902 30.72C80.1102 27.18 81.4902 23.4 82.6902 19.74C82.3302 19.44 82.1502 19.14 82.1502 18.78C82.1502 17.82 84.5502 13.92 85.7502 13.92C87.1902 13.92 88.6302 16.32 88.6302 17.52C88.6302 17.94 87.5502 20.76 86.7702 22.68C86.1102 24.36 84.4302 27.54 83.9502 28.5C84.9102 28.02 86.7702 27.6 90.5502 23.16ZM86.8302 11.4C86.6502 11.64 86.7102 11.88 86.8902 12.18L88.2702 13.74C88.3302 13.86 88.4502 13.92 88.5702 13.92C88.6302 13.92 88.7502 13.86 88.9302 13.68C90.0102 12.3 93.8502 7.62 94.7502 7.2C94.5702 6.78 94.3902 6.36 94.1502 6C93.7302 5.34 93.1902 4.8 92.4102 4.8C92.1102 4.8 91.6902 4.74 90.7902 5.88C90.3702 6.42 89.8902 7.08 89.4102 7.74C88.3902 9.18 87.3102 10.68 86.8302 11.4ZM105.946 23.22C106.006 23.16 106.126 23.1 106.246 23.1H109.966C110.146 23.1 110.146 23.16 110.026 23.28C109.366 24.48 104.506 31.8 102.106 32.28C101.986 32.34 101.806 32.34 101.506 32.34C100.366 32.34 99.5863 31.74 99.0463 31.08C98.7463 30.72 98.4463 30.3 98.2663 29.82C97.8463 30.54 97.3063 31.14 96.7663 31.68C95.8663 32.64 94.5463 33.6 93.1063 33.6C89.6862 33.78 87.5862 27.84 89.8662 24.3C91.9663 20.76 94.3063 16.14 98.5063 14.4C99.2863 14.1 99.9463 13.92 100.486 13.92C102.346 13.92 103.366 15.48 104.146 17.7C103.966 17.52 103.786 17.4 103.606 17.28C103.186 16.98 102.706 16.86 102.046 16.86C100.606 16.86 98.6263 17.7 96.2863 21.48C91.6663 28.86 92.2063 30.12 92.4463 30.36C92.7463 30.6 94.8463 28.86 96.7063 25.5C98.4463 22.14 101.026 18.6 101.626 18.6C102.286 18.6 103.786 19.62 104.446 21.24C103.726 22.5 103.126 23.64 102.586 24.66C101.686 26.4 101.086 28.32 101.626 28.8C102.286 29.28 104.926 24.54 105.946 23.22ZM109.475 23.82H105.695C105.575 23.82 105.575 23.76 105.635 23.64C106.775 21.54 113.375 11.88 115.355 11.88C117.815 12.54 116.135 16.98 117.095 16.98C118.895 16.98 120.095 12.06 121.235 12.36C122.375 12.78 123.275 13.38 123.035 15C122.855 15.9 122.855 16.8 122.675 17.58C122.615 18.06 122.495 18.54 122.435 18.96C123.215 18.06 123.935 17.1 124.715 16.2C125.915 14.58 127.295 12.6 128.195 10.98C128.375 10.8 128.495 10.74 128.615 10.74C128.675 10.74 128.735 10.8 128.915 10.86C129.695 11.52 131.255 12.66 131.075 13.44C130.835 14.52 127.055 26.16 128.195 26.4C129.215 26.52 131.375 24.48 132.935 22.44C133.955 21.3 134.975 19.92 136.115 18.36L136.955 21.06C137.135 21.6 137.195 22.32 137.015 22.74C135.755 25.26 130.475 31.44 126.575 31.62C123.395 31.62 123.995 27.24 124.475 25.32C123.995 25.68 123.515 26.16 123.035 26.82C122.135 27.96 121.115 29.58 120.155 32.22C119.975 32.76 119.555 33 119.015 33C118.835 33 118.655 33 118.595 32.94C117.455 32.4 116.015 31.44 116.555 29.76C117.335 27.12 117.815 24.96 117.515 23.94C116.975 24.78 116.495 25.62 116.015 26.46C115.115 27.84 114.155 29.64 113.375 31.02C113.195 31.38 112.895 31.56 112.415 31.56C112.175 31.56 111.995 31.5 111.875 31.44C110.855 30.78 109.415 29.52 110.555 27.6C112.535 24 113.675 21.48 113.015 19.38C112.535 19.98 112.115 20.58 111.695 21.12C110.975 22.02 110.135 23.1 109.715 23.64C109.655 23.76 109.595 23.82 109.475 23.82ZM154.914 5.4C150.174 5.4 143.754 9.12 140.394 12.84C139.134 14.28 137.694 16.38 137.694 18.36C137.694 20.04 139.854 21.3 141.654 21.9C143.514 22.56 144.174 22.68 145.434 22.92C149.994 23.88 151.434 25.62 151.434 30.48C151.434 35.76 144.774 37.56 141.414 37.56C138.114 37.56 133.734 36.12 133.734 31.32C133.734 30.78 133.794 30.12 133.974 29.58C134.214 29.04 134.514 28.56 135.234 28.56C135.894 28.56 136.134 29.64 136.134 30.12C136.134 32.34 139.374 32.94 141.114 32.94C143.574 32.94 148.554 31.86 148.554 28.62C148.554 28.2 148.014 28.02 147.774 27.84C147.294 27.6 146.694 27.54 146.454 27.36C145.494 27.12 144.534 27 143.334 26.76C139.734 26.1 135.834 24.72 135.054 20.64C134.814 19.44 134.574 18.18 134.574 16.92C134.574 8.88 146.634 0.119998 154.554 0.119998C159.774 0.119998 160.434 3.36 161.094 7.56C161.334 8.7 161.514 9.78 161.514 10.56C161.514 15 155.574 20.1 151.974 20.1C150.774 20.1 148.854 19.2 148.854 17.34C148.854 16.38 149.214 16.32 150.114 16.32C150.174 16.38 150.294 16.38 150.474 16.38C152.034 16.38 154.134 14.64 155.334 13.44C156.834 12 158.214 9.96 158.214 7.62C158.214 5.7 156.534 5.4 154.914 5.4Z" fill="white"/>
</svg>
