<svg width="297" height="52" viewBox="0 0 231 50" fill="none" xmlns="http://www.w3.org/2000/svg">
<path d="M13.72 23.32L17.38 23.98C12.64 31.12 7.42 34 4.48 34C3.1 34 2.02 33.04 1.18 31.12C0.4 29.56 0.04 28.42 0.04 27.64C0.04 21.58 10.66 6.58 14.32 2.2C15.34 1.06 16.06 0.519998 16.54 0.519998C17.8 0.519998 18.52 3.4 18.52 4.48C18.52 4.96 18.28 5.32 17.86 5.98L13.18 12.46C11.2 14.92 3.76 24.88 3.76 28.48C3.76 29.2 4.3 29.38 4.78 29.56C4.96 29.62 5.08 29.74 5.5 29.74C6.64 29.74 9.04 28.84 13.72 23.32ZM29.0903 23.38L32.0903 23.5C32.3903 23.5 32.8103 23.74 32.6303 23.98C30.0503 28 25.3103 33.16 20.1503 33.16C15.5903 33.16 12.7703 29.92 12.7703 25.66C12.7703 22.72 14.0303 20.02 15.5303 17.62C16.4903 16.12 18.4703 13.12 20.7503 13.12C21.4103 13.12 22.1903 13.54 22.9103 14.02C24.5903 15.04 26.6303 16.42 26.6303 18.64C26.6303 22.48 21.4103 26.14 17.8103 26.14C17.2703 26.14 16.7303 26.02 16.2503 25.78C16.2503 26.08 16.1903 26.38 16.1903 26.68C16.1903 28.42 18.5303 29.44 20.1503 29.44C23.1503 29.44 26.9903 26.14 28.7303 23.74C28.7903 23.68 28.8503 23.56 28.9103 23.5C28.9703 23.44 29.0303 23.38 29.0903 23.38ZM22.8503 17.98C22.8503 17.74 22.5503 17.44 22.2503 17.44C20.3903 17.44 18.3503 21.16 17.6303 22.6C20.2103 22.12 22.8503 20.5 22.8503 17.98ZM41.0833 23.32L44.7433 23.98C40.0033 31.12 34.7833 34 31.8433 34C30.4633 34 29.3833 33.04 28.5433 31.12C27.7633 29.56 27.4033 28.42 27.4033 27.64C27.4033 25.42 29.6233 21.58 32.5033 16.72H32.3233C31.5433 16.72 30.4633 16.18 29.9833 15.22C29.8033 14.92 29.8033 14.5 29.8633 14.08C29.9233 13.66 30.5833 13.3 31.8433 13.06C33.1033 12.76 34.1833 12.7 35.0833 12.7H35.6233C37.0633 10.9 41.5633 4.54 43.4833 2.32C44.4433 1.24 45.1633 0.7 45.6433 0.7C46.9033 0.7 47.6233 3.58 47.6233 4.66C47.6233 5.14 47.3833 5.62 46.9633 6.1L41.3833 13.18C41.8033 13.36 42.4633 13.36 42.5233 13.54C43.3033 13.96 43.1233 14.44 43.1233 15.64C43.1233 16.3 42.9433 16.66 42.6433 16.72C41.5033 16.96 40.4833 16.9 37.9033 16.96C34.0033 22.24 31.1233 26.38 31.1233 28.48C31.1233 29.2 31.6633 29.38 32.1433 29.56C32.3233 29.62 32.4433 29.74 32.8633 29.74C34.0033 29.74 36.4033 28.84 41.0833 23.32ZM70.8892 17.86C72.0292 17.86 73.2292 16.24 73.9492 15.22C75.0892 13.72 75.9292 11.98 75.9292 10C75.9292 7.54 74.1892 6.64 72.4492 6.64C65.3092 6.64 54.9292 20.02 54.9292 29.14C54.9292 32.5 56.3092 34.18 59.0092 34.18C62.0092 34.18 65.1292 31.54 67.7692 28.9C69.0292 27.52 70.2292 26.26 71.1292 25.3C72.0292 24.28 72.8092 23.56 73.2892 23.56C74.6092 23.56 74.9092 25.84 74.9092 26.8C74.9092 27.46 74.4292 28.24 74.0092 28.72C72.0292 31.72 64.8892 44.26 64.8892 47.68C64.8892 47.74 64.8892 47.8 64.9492 47.8C64.9492 47.86 64.9492 47.92 65.0092 47.98C65.0092 48.52 64.8892 49.24 64.1692 49.24C62.7892 49.24 61.4092 47.32 61.4092 45.64C61.4092 43 63.8692 38.5 65.3092 35.62C63.4492 37.24 61.2292 38.44 58.8292 38.44C56.4292 38.44 55.5292 37.54 54.1492 35.8C53.7292 35.26 53.4292 34.72 53.0092 34.06H52.9492L52.8892 33.94C51.9292 32.08 51.4492 29.98 51.4492 27.76C51.4492 19.36 57.8692 8.92 64.5292 4.3C66.6292 2.86 69.0892 1.72 71.5492 1.72C76.1092 1.72 79.4092 8.26 79.4092 12.28C79.4092 16.3 75.4492 21.28 72.3892 21.28C71.4892 21.28 69.5092 20.5 69.5092 18.76C69.5092 18.04 69.8692 17.68 70.5892 17.68C70.6492 17.74 70.7092 17.74 70.7092 17.74H70.7692L70.8292 17.8C70.8892 17.8 70.8892 17.8 70.8892 17.86ZM87.5936 24.94C90.2336 24.76 92.8736 24.1 95.2136 22.96C99.2336 21.04 104.034 17.14 103.734 11.68C103.554 7.42 100.254 6.34 97.0736 6.34C96.6536 6.34 96.4136 6.4 95.9936 6.4C93.1736 6.58 90.4736 7.36 88.1336 8.86C86.9936 9.7 84.9536 11.02 85.1336 12.64V13.06C85.1936 13.12 85.1336 13.3 85.0736 13.54C84.8936 13.9 84.6536 14.08 84.2936 14.08C82.9136 14.26 81.8336 11.14 81.8336 10C81.6536 7.36 84.3536 5.2 85.9736 4.24C89.0336 2.26 92.4536 1.42 95.8136 1.18C103.614 1.18 105.294 4.84 106.434 11.44C106.614 12.46 106.854 13.48 106.914 14.38C107.214 18.52 104.514 21.82 101.994 23.98C98.3336 27.1 93.9536 28.6 89.4536 28.9C89.0336 28.9 88.6136 28.96 88.1936 28.96C87.2936 28.96 86.3936 28.9 85.6136 28.72C85.3736 29.44 80.5136 42.46 80.5136 42.52L80.5736 42.58V42.7C80.3936 43.12 80.0936 43.48 79.6136 43.48C78.9536 43.54 78.5936 43 78.3536 42.52C78.0536 41.86 77.9336 41.26 77.9336 40.84C77.7536 38.2 81.0536 29.38 82.0136 27.16C81.6536 26.74 81.4136 26.14 81.3536 25.48C81.3536 24.94 81.4136 24.16 82.1336 24.1C82.5536 24.1 83.1536 24.34 83.2136 24.34C85.8536 18.82 88.8536 13.24 92.4536 8.5L92.5136 8.38H92.5736C92.8136 7.96 93.2936 7.6 93.7736 7.6C94.4336 7.54 94.8536 8.44 95.0936 9.16C95.3336 9.94 95.5736 10.84 95.6336 11.32C95.6336 11.68 95.5136 12.04 95.3336 12.46C95.1536 12.76 94.9736 13.06 94.7936 13.3C92.0936 16.9 89.7536 20.8 87.5936 24.94ZM135.817 8.32H135.697L135.637 8.26C134.077 7 128.197 6.94 126.217 6.94C123.817 6.94 110.497 7.6 110.497 10.6C110.497 10.66 110.497 10.72 110.557 10.72C110.557 10.78 110.557 10.78 110.557 10.78C110.557 10.84 110.557 10.9 110.617 10.96C110.617 11.62 110.557 12.28 109.657 12.28C108.157 12.28 107.197 9.16 107.197 7.96C107.197 2.5 119.377 1.96 123.217 1.96C126.937 1.96 136.897 2.14 136.897 7.48C136.897 7.96 136.597 8.44 136.117 8.44C136.057 8.44 135.997 8.38 135.817 8.32ZM108.457 38.38H108.397C108.217 38.62 107.977 38.98 107.557 38.98C106.417 38.98 105.997 37.06 105.997 36.22C105.997 31.72 114.277 18.64 117.397 14.08C119.617 10.78 122.077 7.48 123.277 7.48C123.997 7.48 124.297 8.38 124.537 9.16C124.717 9.88 124.837 10.84 124.837 11.26C124.837 11.92 124.237 12.76 123.817 13.18C119.497 17.98 110.677 31.66 108.517 38.2L108.457 38.38ZM134.079 31.06C133.119 29.98 132.639 28.78 132.639 27.4C132.639 23.38 136.779 16.06 141.279 16.06C142.479 16.06 143.619 16.72 144.699 18.1L145.359 18.94C146.259 20.14 147.039 20.92 147.039 21.82C147.039 24.04 143.859 26.08 141.819 26.08C141.039 26.08 140.679 25.9 140.679 25.54C140.679 25.36 140.859 25.12 141.279 24.82C142.179 24.28 142.899 23.32 143.559 21.82C144.099 20.5 144.039 19.84 143.259 19.84C142.119 19.84 140.679 20.92 138.939 23.02C137.199 25.12 136.299 26.98 136.299 28.6C136.299 29.86 137.319 30.88 138.519 30.88C143.319 30.22 145.539 26.74 148.239 23.38L151.899 23.98C149.139 28.66 143.439 34 138.819 34C137.319 34 136.059 33.22 135.639 32.8C135.339 32.5 134.079 31.06 134.079 31.06ZM146.88 27.22C147.06 23.68 151.2 15.76 155.22 15.76C156.66 15.76 160.86 16.72 159.42 19.84C160.62 20.5 161.04 20.5 161.1 22.6C161.16 24.34 160.62 26.26 159.48 27.7C159.42 28.42 159.66 29.56 160.38 29.56C160.8 29.56 161.28 29.26 161.82 28.6C162.84 27.22 164.1 25.24 164.64 24.34C164.7 24.28 164.82 24.22 164.94 24.22H168.66C168.84 24.22 168.84 24.28 168.72 24.4C168.06 25.54 163.26 32.8 160.92 33.28C160.8 33.34 160.62 33.34 160.44 33.34C158.64 33.34 157.74 31.66 157.38 30.82C155.46 32.98 153.6 34.06 151.8 34.06C150.54 34.06 149.7 33.28 148.74 31.9C147.36 30.16 146.88 28.9 146.88 27.22ZM152.58 23.32C150.96 25.48 150.6 26.98 150.6 28.6C150.6 29.68 151.08 30.22 151.98 30.22C153.48 30.22 155.16 28.84 156.66 26.5C156 24.52 156.3 21.7 157.44 20.56C157.26 20.26 156.96 20.14 156.54 20.14C155.4 20.14 154.08 21.22 152.58 23.32ZM163.872 27.22C164.052 23.68 168.192 15.76 172.212 15.76C173.652 15.76 177.852 16.72 176.412 19.84C177.612 20.5 178.032 20.5 178.092 22.6C178.152 24.34 177.612 26.26 176.472 27.7C176.412 28.42 176.652 29.56 177.372 29.56C177.792 29.56 178.272 29.26 178.812 28.6C179.832 27.22 181.092 25.24 181.632 24.34C181.692 24.28 181.812 24.22 181.932 24.22H185.652C185.832 24.22 185.832 24.28 185.712 24.4C185.052 25.54 180.252 32.8 177.912 33.28C177.792 33.34 177.612 33.34 177.432 33.34C175.632 33.34 174.732 31.66 174.372 30.82C172.452 32.98 170.592 34.06 168.792 34.06C167.532 34.06 166.692 33.28 165.732 31.9C164.352 30.16 163.872 28.9 163.872 27.22ZM169.572 23.32C167.952 25.48 167.592 26.98 167.592 28.6C167.592 29.68 168.072 30.22 168.972 30.22C170.472 30.22 172.152 28.84 173.652 26.5C172.992 24.52 173.292 21.7 174.432 20.56C174.252 20.26 173.952 20.14 173.532 20.14C172.392 20.14 171.072 21.22 169.572 23.32ZM206.245 23.26L209.185 24.58C209.245 24.64 209.305 24.7 209.245 24.76C204.805 31.12 198.205 34.06 196.345 34.06C192.625 34.06 190.105 29.8 189.025 26.8L185.125 32.86C184.705 33.58 184.285 33.94 183.865 33.94C183.085 34 182.425 33.1 181.825 31.3C181.345 29.92 180.985 28.78 181.045 27.82C181.705 21.04 190.405 9.1 196.345 2.2C197.005 1.48 197.545 1.3 197.725 1.3C198.205 1.24 198.685 1.78 199.105 2.92C199.525 4.06 199.765 4.9 199.765 5.62C199.765 6.16 199.345 6.94 198.505 7.84C191.125 15.4 186.865 21.22 184.465 29.86C186.325 26.62 193.465 14.5 197.485 14.5C198.505 14.44 199.465 15.34 200.365 17.2C201.205 18.94 201.625 20.02 201.625 20.56C201.685 22.12 200.905 23.56 199.285 24.94C197.665 26.32 196.345 26.92 194.245 26.92C195.085 28.84 196.105 29.74 197.245 29.68C200.125 29.68 204.445 25.6 206.065 23.32C206.125 23.26 206.185 23.2 206.245 23.26ZM197.365 18.04C196.105 18.1 193.885 20.32 190.645 24.7C190.825 24.7 191.365 24.82 191.605 24.82C193.285 24.76 194.845 24.04 196.225 22.66C197.545 21.28 198.205 20.02 198.145 18.88C198.145 18.34 197.905 18.04 197.365 18.04ZM229.312 6.58C229.252 6.58 229.192 6.64 229.132 6.7C224.512 11.2 219.592 17.92 215.872 23.08C215.212 23.86 214.612 24.58 214.072 25.48C213.892 25.78 213.832 26.02 213.652 26.26C213.472 26.56 213.352 26.8 213.232 26.92C212.992 27.28 212.692 27.46 212.332 27.46C211.912 27.46 211.552 27.16 211.252 26.56C211.012 26.02 210.892 25.3 210.892 24.88C210.892 24.22 211.372 23.08 212.032 21.94C214.432 17.62 225.352 2.02 227.932 2.02C229.072 2.02 230.092 3.94 230.092 5.08C230.092 5.5 229.792 6.16 229.492 6.34L229.432 6.4V6.46C229.432 6.46 229.372 6.52 229.312 6.58ZM206.272 31.78C206.272 30.16 207.892 28.84 209.392 28.84C210.832 28.84 211.552 29.5 211.552 30.88C211.552 32.62 210.232 34 208.552 34C207.352 34 206.272 32.98 206.272 31.78Z" fill="white"/>
</svg>
