<svg width="131" height="52" viewBox="0 0 131 52" fill="none" xmlns="http://www.w3.org/2000/svg">
<path d="M0.359999 47.38C0.18 45.46 1.02 42.04 2.88 37.06C5.46 30.04 11.64 17.08 16.74 11.5C17.16 10.84 17.52 10.54 17.94 10.54C18.72 10.54 19.14 11.92 19.32 13.18C19.5 14.2 18.72 14.68 18.48 15.4C17.04 17.56 15.78 19.66 14.4 21.82C17.1 18.28 20.22 15.4 21.78 15.22C23.22 15.22 23.82 16.96 24.12 18.16C24.18 18.82 24.84 20.5 24.9 21.28C25.38 24.1 23.52 27.46 21.66 29.44C23.76 28.3 26.88 24.52 27.54 23.56L31.14 24.1C26.64 32.5 17.34 33.94 15.42 33.94C13.56 33.94 12.42 33.04 11.52 31.54C11.1 30.88 10.8 30.1 10.38 29.14C5.82 40.48 3.66 47.26 3.9 49.42C4.08 49.96 4.08 49.9 4.14 50.2C4.2 50.62 3.96 50.86 3.54 50.98C2.7 51.16 0.659999 49.6 0.359999 47.38ZM20.82 19C20.22 18.82 15.72 22.6 12.06 28C12.72 29.38 13.32 30.4 14.94 30.4C16.32 30.22 17.76 28.66 19.38 25.72C21 22.9 21.66 20.86 21.48 19.54C21.42 19.18 21.24 19 20.82 19ZM39.3567 23.32L43.0167 23.98C38.2767 31.12 33.0567 34 30.1167 34C28.7367 34 27.6567 33.04 26.8167 31.12C26.0367 29.56 25.6767 28.42 25.6767 27.64C25.6767 21.58 36.2967 6.58 39.9567 2.2C40.9767 1.06 41.6967 0.519998 42.1767 0.519998C43.4367 0.519998 44.1567 3.4 44.1567 4.48C44.1567 4.96 43.9167 5.32 43.4967 5.98L38.8167 12.46C36.8367 14.92 29.3967 24.88 29.3967 28.48C29.3967 29.2 29.9367 29.38 30.4167 29.56C30.5967 29.62 30.7167 29.74 31.1367 29.74C32.2767 29.74 34.6767 28.84 39.3567 23.32ZM54.247 24.22C54.307 24.16 54.427 24.1 54.547 24.1H58.267C58.447 24.1 58.447 24.16 58.327 24.28C57.667 25.48 52.807 32.8 50.407 33.28C50.287 33.34 50.107 33.34 49.807 33.34C48.667 33.34 47.887 32.74 47.347 32.08C47.047 31.72 46.747 31.3 46.567 30.82C46.147 31.54 45.607 32.14 45.067 32.68C44.167 33.64 42.847 34.6 41.407 34.6C37.987 34.78 35.887 28.84 38.167 25.3C40.267 21.76 42.607 17.14 46.807 15.4C47.587 15.1 48.247 14.92 48.787 14.92C50.647 14.92 51.667 16.48 52.447 18.7C52.267 18.52 52.087 18.4 51.907 18.28C51.487 17.98 51.007 17.86 50.347 17.86C48.907 17.86 46.927 18.7 44.587 22.48C39.967 29.86 40.507 31.12 40.747 31.36C41.047 31.6 43.147 29.86 45.007 26.5C46.747 23.14 49.327 19.6 49.927 19.6C50.587 19.6 52.087 20.62 52.747 22.24C52.027 23.5 51.427 24.64 50.887 25.66C49.987 27.4 49.387 29.32 49.927 29.8C50.587 30.28 53.227 25.54 54.247 24.22ZM46.7958 48.88C46.1358 47.74 45.2958 46.06 45.2958 44.68C45.2958 40.42 52.3758 36.34 55.6758 34.78C56.8758 34.12 58.1358 33.82 59.5158 33.16C60.4158 32.74 61.3758 32.32 62.2758 31.78C63.4158 29.86 64.5558 27.58 66.0558 24.76L65.8158 24.64C64.1958 27.1 63.3558 28.18 61.7958 29.86C60.2358 31.6 58.8558 32.44 57.7158 32.44C56.8758 32.44 56.2758 32.14 55.8558 31.54C55.5558 31.06 55.6158 31.18 55.1358 30.52L54.8358 29.92C54.1158 28.54 53.6958 27.64 53.6958 26.74C53.6958 24.4 55.0758 21.52 57.7758 18.1C59.0358 16.42 59.9958 15.58 60.5958 15.58C61.6758 15.58 62.6958 18.28 62.6958 19.18C62.6958 19.54 62.4558 19.96 62.0358 20.5C58.6158 24.04 56.9358 26.56 56.9358 28.12C56.9358 28.66 57.1758 28.96 57.7158 28.96C59.9958 28.96 67.0758 20.08 68.5758 18.04C69.7158 16.42 70.4958 15.58 70.8558 15.58C71.8158 15.58 73.4358 17.68 73.4358 18.82C73.4358 19.06 73.1958 19.54 72.7758 20.26C70.8558 24.1 69.1758 27.1 67.7958 29.5H67.8558C68.8158 29.02 70.6758 28.6 74.4558 24.16L78.4158 24.28C74.3958 30.1 68.9958 33.58 65.6358 35.68C63.2358 40.96 58.3758 51.34 50.5158 51.34H49.9758C48.3558 51.1 47.5158 50.26 46.7958 48.88ZM48.5358 45.88C48.5358 47.02 49.0758 47.86 50.2758 47.86C53.8758 47.86 58.3758 39.94 59.9958 36.58C56.4558 38.02 48.5358 41.98 48.5358 45.88ZM86.9934 23.32L90.6534 23.98C85.9134 31.12 80.6934 34 77.7534 34C76.3734 34 75.2934 33.04 74.4534 31.12C73.6734 29.56 73.3134 28.42 73.3134 27.64C73.3134 21.58 83.9334 6.58 87.5934 2.2C88.6134 1.06 89.3334 0.519998 89.8134 0.519998C91.0734 0.519998 91.7934 3.4 91.7934 4.48C91.7934 4.96 91.5534 5.32 91.1334 5.98L86.4534 12.46C84.4734 14.92 77.0334 24.88 77.0334 28.48C77.0334 29.2 77.5734 29.38 78.0534 29.56C78.2334 29.62 78.3534 29.74 78.7734 29.74C79.9134 29.74 82.3134 28.84 86.9934 23.32ZM89.6438 31.18L94.6838 24.04C94.7438 23.98 94.8038 23.98 94.8638 23.98L98.7038 23.92C98.8838 23.92 98.8838 23.98 98.7638 24.1C98.1038 25.06 93.7838 32.92 89.7038 34.48C89.3438 34.66 88.9238 34.72 88.5038 34.72C86.7638 34.72 85.3237 33.34 85.1437 30.76C84.9637 26.5 86.7038 23.5 87.9038 21.16C88.8038 19.42 89.8238 17.14 90.3037 16.12C90.3638 15.94 90.5438 15.82 90.7238 15.82C90.7838 15.82 90.9038 15.88 90.9638 15.94C91.6838 16.48 93.1238 17.86 93.5438 18.76C92.5838 20.5 91.8038 22.12 91.1438 23.68C90.0038 26.38 88.9838 29.44 89.6438 31.18ZM92.6438 13.18C92.4638 13.42 92.5238 13.66 92.7038 13.96L94.0838 15.52C94.1438 15.64 94.2637 15.7 94.3838 15.7C94.4438 15.7 94.5638 15.64 94.7438 15.46C95.8238 14.02 99.8438 9.16 100.804 8.68C100.624 8.26 100.444 7.84 100.204 7.48C99.7838 6.82 99.2438 6.28 98.4638 6.28C98.1638 6.28 97.7438 6.22 96.8438 7.36C96.3638 7.96 95.8838 8.62 95.3438 9.34C94.2637 10.84 93.1238 12.46 92.6438 13.18ZM101.508 29.02V28.78C101.328 26.44 101.028 24.34 100.848 22C99.4683 23.86 98.0883 25.6 96.4683 27.34C97.2483 28.6 98.8083 30.46 100.188 30.46C101.088 30.46 101.508 29.92 101.508 29.02ZM92.4483 27.7C92.3883 27.52 92.3883 27.28 92.5683 27.1C94.4883 24.22 98.6283 18.7 100.248 16.3C100.428 16.12 100.488 16 100.548 15.82C100.728 15.58 100.788 15.4 100.848 15.34C100.968 15.22 101.148 15.16 101.448 15.16C101.748 15.16 102.108 15.22 102.348 15.22C103.548 15.22 106.368 16.78 106.368 18.16C106.368 18.28 106.308 18.4 106.248 18.46C106.248 18.52 106.248 18.58 106.188 18.58V18.7C105.948 19.6 105.888 20.44 105.888 21.4C105.888 23.5 106.008 25.72 106.008 27.88C107.868 27.22 109.788 26.14 111.888 23.32L115.668 23.92C111.828 29.5 106.548 33.7 99.5283 34.36C96.1683 34.36 94.6683 31.54 94.0083 28.6H93.5283C92.9283 28.6 92.5683 28.3 92.4483 27.7ZM124.025 23.32L127.685 23.98C122.945 31.12 117.725 34 114.785 34C113.405 34 112.325 33.04 111.485 31.12C110.705 29.56 110.345 28.42 110.345 27.64C110.345 25.42 112.565 21.58 115.445 16.72H115.265C114.485 16.72 113.405 16.18 112.925 15.22C112.745 14.92 112.745 14.5 112.805 14.08C112.865 13.66 113.525 13.3 114.785 13.06C116.045 12.76 117.125 12.7 118.025 12.7H118.565C120.005 10.9 124.505 4.54 126.425 2.32C127.385 1.24 128.105 0.7 128.585 0.7C129.845 0.7 130.565 3.58 130.565 4.66C130.565 5.14 130.325 5.62 129.905 6.1L124.325 13.18C124.745 13.36 125.405 13.36 125.465 13.54C126.245 13.96 126.065 14.44 126.065 15.64C126.065 16.3 125.885 16.66 125.585 16.72C124.445 16.96 123.425 16.9 120.845 16.96C116.945 22.24 114.065 26.38 114.065 28.48C114.065 29.2 114.605 29.38 115.085 29.56C115.265 29.62 115.385 29.74 115.805 29.74C116.945 29.74 119.345 28.84 124.025 23.32Z" fill="white"/>
</svg>
