<svg width="403" height="170" viewBox="0 0 403 170" fill="none" xmlns="http://www.w3.org/2000/svg">
<path d="M16.5 105.55C18.75 105.55 19.8 106.6 19.8 108.85C19.8 112.3 16.35 112.75 13.5 113.2H10.5C8.25 113.2 6.15 113.35 3.9 113.35C0.9 113.35 0.3 108.4 0.3 106.15C0.3 95.35 37.2 40 50.4 29.2C52.65 27.55 52.8 27.55 55.35 27.55C58.2 27.55 67.65 27.55 69.75 28.45C71.4 29.5 71.4 29.65 71.4 31.3C71.4 35.5 65.25 35.95 61.95 35.95H57.75L57.6 36.1C41.25 55.6 21.15 82.3 9.45 104.8L9 105.7H10.05C12.3 105.7 14.25 105.55 16.5 105.55ZM147.096 44.35C136.896 63.1 91.8961 119.95 75.9961 119.95C69.3961 119.95 64.4461 108.55 64.4461 102.4C64.4461 90.25 72.6961 73.3 77.7961 63.4C80.1961 57.55 97.1461 27.55 102.546 27.55C103.296 27.55 104.046 28 104.496 28.9C104.946 29.5 105.396 30.25 105.846 31.3C106.596 33.1 107.196 35.35 107.196 36.55C107.196 37.9 105.696 40.75 104.946 41.8C103.146 44.65 101.046 47.5 99.0961 50.35C90.0961 63.55 72.9961 91 72.9961 105.85C72.9961 106.45 72.9961 107.5 73.1461 108.25C73.4461 109 73.7461 109.45 74.1961 109.45C83.3461 109.45 113.046 73.9 120.246 64.3C129.246 52.45 137.046 40.45 144.096 27.25C144.546 26.2 145.446 24.85 146.646 24.85C149.796 24.85 150.846 32.8 150.846 34.75C150.846 37 149.046 40.9 147.096 44.35ZM139.793 101.95L152.393 84.1C152.543 83.95 152.693 83.95 152.843 83.95L162.443 83.8C162.893 83.8 162.893 83.95 162.593 84.25C160.943 86.65 150.143 106.3 139.943 110.2C139.043 110.65 137.993 110.8 136.943 110.8C132.593 110.8 128.993 107.35 128.543 100.9C128.093 90.25 132.443 82.75 135.443 76.9C137.693 72.55 140.243 66.85 141.443 64.3C141.593 63.85 142.043 63.55 142.493 63.55C142.643 63.55 142.943 63.7 143.093 63.85C144.893 65.2 148.493 68.65 149.543 70.9C147.143 75.25 145.193 79.3 143.543 83.2C140.693 89.95 138.143 97.6 139.793 101.95ZM147.293 56.95C146.843 57.55 146.993 58.15 147.443 58.9L150.893 62.8C151.043 63.1 151.343 63.25 151.643 63.25C151.793 63.25 152.093 63.1 152.543 62.65C155.243 59.05 165.293 46.9 167.693 45.7C167.243 44.65 166.793 43.6 166.193 42.7C165.143 41.05 163.793 39.7 161.843 39.7C161.093 39.7 160.043 39.55 157.793 42.4C156.593 43.9 155.393 45.55 154.043 47.35C151.343 51.1 148.493 55.15 147.293 56.95ZM150.554 101.95C149.504 98.8 149.054 95.65 149.354 92.5C149.954 76.75 176.354 40.15 185.204 29.5C187.754 26.65 189.554 25.3 190.754 25.3C193.754 25.3 195.554 32.65 195.554 35.2C195.554 36.4 194.954 37.3 193.904 38.95L182.354 55.15C179.804 58.15 173.954 65.8 168.704 73.9C163.454 82 158.804 90.4 158.804 95.05C163.454 88 167.504 81.4 173.354 75.4C179.504 69.55 183.854 66.55 186.404 66.55C189.554 66.55 190.454 68.5 192.854 74.5C193.304 75.4 195.254 80.05 195.254 82C195.254 84.85 195.254 93.1 181.904 102.4C191.654 98.8 198.254 87.25 200.804 83.05L209.954 84.55C199.754 100.75 187.604 109.15 175.604 109.15C174.554 109.15 173.804 109.15 172.754 109C166.904 109 163.304 104.5 161.654 99.25L156.854 106C156.104 106.6 155.954 107.95 154.904 107.95C153.254 107.95 151.754 106 150.554 101.95ZM165.404 94.3C165.854 98.35 167.354 100.3 169.904 100.3C176.654 100.3 186.554 82.75 186.554 76.9C186.554 75.7 186.104 75.1 185.204 75.1C181.754 75.1 175.154 81.55 165.404 94.3ZM239.855 82.45L247.355 82.75C248.105 82.75 249.155 83.35 248.705 83.95C242.255 94 230.405 106.9 217.505 106.9C206.105 106.9 199.055 98.8 199.055 88.15C199.055 80.8 202.205 74.05 205.955 68.05C208.355 64.3 213.305 56.8 219.005 56.8C220.655 56.8 222.605 57.85 224.405 59.05C228.605 61.6 233.705 65.05 233.705 70.6C233.705 80.2 220.655 89.35 211.655 89.35C210.305 89.35 208.955 89.05 207.755 88.45C207.755 89.2 207.605 89.95 207.605 90.7C207.605 95.05 213.455 97.6 217.505 97.6C225.005 97.6 234.605 89.35 238.955 83.35C239.105 83.2 239.255 82.9 239.405 82.75C239.555 82.6 239.705 82.45 239.855 82.45ZM224.255 68.95C224.255 68.35 223.505 67.6 222.755 67.6C218.105 67.6 213.005 76.9 211.205 80.5C217.655 79.3 224.255 75.25 224.255 68.95ZM293.837 40C281.987 40 265.937 49.3 257.537 58.6C254.387 62.2 250.787 67.45 250.787 72.4C250.787 76.6 256.187 79.75 260.687 81.25C265.337 82.9 266.987 83.2 270.137 83.8C281.537 86.2 285.137 90.55 285.137 102.7C285.137 115.9 268.487 120.4 260.087 120.4C251.837 120.4 240.887 116.8 240.887 104.8C240.887 103.45 241.037 101.8 241.487 100.45C242.087 99.1 242.837 97.9 244.637 97.9C246.287 97.9 246.887 100.6 246.887 101.8C246.887 107.35 254.987 108.85 259.337 108.85C265.487 108.85 277.937 106.15 277.937 98.05C277.937 97 276.587 96.55 275.987 96.1C274.787 95.5 273.287 95.35 272.687 94.9C270.287 94.3 267.887 94 264.887 93.4C255.887 91.75 246.137 88.3 244.187 78.1C243.587 75.1 242.987 71.95 242.987 68.8C242.987 48.7 273.137 26.8 292.937 26.8C305.987 26.8 307.637 34.9 309.287 45.4C309.887 48.25 310.337 50.95 310.337 52.9C310.337 64 295.487 76.75 286.487 76.75C283.487 76.75 278.687 74.5 278.687 69.85C278.687 67.45 279.587 67.3 281.837 67.3C281.987 67.45 282.287 67.45 282.737 67.45C286.637 67.45 291.887 63.1 294.887 60.1C298.637 56.5 302.087 51.4 302.087 45.55C302.087 40.75 297.887 40 293.837 40ZM381.232 35.05C381.082 34.75 380.932 34.6 380.632 34.6C380.482 34.45 380.332 34.45 380.332 34.45C379.882 34 379.582 33.25 379.582 32.65C379.582 29.8 380.932 28.75 383.182 28.15C384.232 27.7 385.432 27.85 386.632 27.7H390.082C392.482 27.7 395.032 27.55 397.432 27.55C400.282 27.55 402.382 31.15 402.382 34C402.382 35.05 400.732 37.6 397.882 40.6C395.632 43.45 393.082 46.45 392.032 47.8C379.432 64 368.182 80.95 357.382 98.5C356.632 99.55 354.832 102.85 352.882 106.3C350.932 109.75 349.282 112.3 348.832 112.75C348.382 113.2 347.932 113.35 347.182 113.35C344.182 113.35 331.732 113.35 329.932 112.3C328.582 111.7 328.132 111.55 328.132 109.9C328.132 107.65 329.332 106.15 331.882 105.7C335.482 104.95 339.082 104.95 343.132 104.95H343.582L343.732 104.65C354.082 82.6 371.932 55.15 387.532 36.4L388.132 35.5L387.232 35.35C384.982 34.9 383.482 35.05 381.232 35.05Z" fill="white"/>
<path d="M22.4286 105.596C24.5886 105.596 25.5966 106.604 25.5966 108.764C25.5966 112.076 22.2846 112.508 19.5486 112.94H16.6686C14.5086 112.94 12.4926 113.084 10.3326 113.084C7.45256 113.084 6.87656 108.332 6.87656 106.172C6.87656 95.804 42.3006 42.668 54.9726 32.3C57.1326 30.716 57.2766 30.716 59.7246 30.716C62.4606 30.716 71.5326 30.716 73.5486 31.5801C75.1326 32.588 75.1326 32.732 75.1326 34.316C75.1326 38.348 69.2286 38.78 66.0606 38.78H62.0286L61.8846 38.924C46.1886 57.644 26.8926 83.2761 15.6606 104.876L15.2286 105.74H16.2366C18.3966 105.74 20.2686 105.596 22.4286 105.596ZM147.801 46.844C138.009 64.844 94.8088 119.42 79.5448 119.42C73.2088 119.42 68.4568 108.476 68.4568 102.572C68.4568 90.9081 76.3768 74.636 81.2728 65.132C83.5768 59.516 99.8488 30.716 105.033 30.716C105.753 30.716 106.473 31.148 106.905 32.012C107.337 32.588 107.769 33.308 108.201 34.316C108.921 36.044 109.497 38.204 109.497 39.356C109.497 40.652 108.057 43.388 107.337 44.396C105.609 47.132 103.593 49.868 101.721 52.604C93.0808 65.2761 76.6648 91.628 76.6648 105.884C76.6648 106.46 76.6648 107.468 76.8088 108.188C77.0968 108.908 77.3848 109.34 77.8168 109.34C86.6008 109.34 115.113 75.212 122.025 65.996C130.665 54.62 138.153 43.1 144.921 30.428C145.353 29.42 146.217 28.124 147.369 28.124C150.393 28.124 151.401 35.756 151.401 37.628C151.401 39.788 149.673 43.532 147.801 46.844ZM140.79 102.14L152.886 85.004C153.03 84.86 153.174 84.86 153.318 84.86L162.534 84.716C162.966 84.716 162.966 84.86 162.678 85.148C161.094 87.452 150.726 106.316 140.934 110.06C140.07 110.492 139.062 110.636 138.054 110.636C133.878 110.636 130.422 107.324 129.99 101.132C129.558 90.9081 133.734 83.708 136.614 78.092C138.774 73.916 141.222 68.444 142.374 65.996C142.518 65.564 142.95 65.2761 143.382 65.2761C143.526 65.2761 143.814 65.42 143.958 65.564C145.686 66.86 149.142 70.172 150.15 72.332C147.846 76.508 145.974 80.396 144.39 84.14C141.654 90.62 139.206 97.964 140.79 102.14ZM147.99 58.9401C147.558 59.516 147.702 60.092 148.134 60.812L151.446 64.556C151.59 64.844 151.878 64.988 152.166 64.988C152.31 64.988 152.598 64.844 153.03 64.412C155.622 60.956 165.27 49.292 167.574 48.14C167.142 47.132 166.71 46.124 166.134 45.26C165.126 43.676 163.83 42.38 161.958 42.38C161.238 42.38 160.23 42.236 158.07 44.972C156.918 46.412 155.766 47.996 154.47 49.724C151.878 53.324 149.142 57.212 147.99 58.9401ZM151.121 102.14C150.113 99.1161 149.681 96.0921 149.969 93.068C150.545 77.9481 175.889 42.812 184.385 32.588C186.833 29.852 188.561 28.556 189.713 28.556C192.593 28.556 194.321 35.6121 194.321 38.06C194.321 39.212 193.745 40.076 192.737 41.66L181.649 57.212C179.201 60.092 173.585 67.436 168.545 75.212C163.505 82.988 159.041 91.052 159.041 95.5161C163.505 88.7481 167.393 82.412 173.009 76.652C178.913 71.036 183.089 68.156 185.537 68.156C188.561 68.156 189.425 70.028 191.729 75.788C192.161 76.652 194.033 81.1161 194.033 82.988C194.033 85.724 194.033 93.644 181.217 102.572C190.577 99.1161 196.913 88.028 199.361 83.996L208.145 85.4361C198.353 100.988 186.689 109.052 175.169 109.052C174.161 109.052 173.441 109.052 172.433 108.908C166.817 108.908 163.361 104.588 161.777 99.548L157.169 106.028C156.449 106.604 156.305 107.9 155.297 107.9C153.713 107.9 152.273 106.028 151.121 102.14ZM165.377 94.796C165.809 98.6841 167.249 100.556 169.697 100.556C176.177 100.556 185.681 83.708 185.681 78.092C185.681 76.94 185.249 76.364 184.385 76.364C181.073 76.364 174.737 82.556 165.377 94.796ZM236.849 83.4201L244.049 83.708C244.769 83.708 245.777 84.284 245.345 84.86C239.153 94.5081 227.777 106.892 215.393 106.892C204.449 106.892 197.681 99.1161 197.681 88.892C197.681 81.836 200.705 75.356 204.305 69.5961C206.609 65.996 211.361 58.796 216.833 58.796C218.417 58.796 220.289 59.804 222.017 60.956C226.049 63.404 230.945 66.716 230.945 72.044C230.945 81.2601 218.417 90.044 209.777 90.044C208.481 90.044 207.185 89.7561 206.033 89.18C206.033 89.9001 205.889 90.62 205.889 91.34C205.889 95.5161 211.505 97.964 215.393 97.964C222.593 97.964 231.809 90.044 235.985 84.284C236.129 84.14 236.273 83.852 236.417 83.708C236.561 83.564 236.705 83.4201 236.849 83.4201ZM221.873 70.46C221.873 69.884 221.153 69.164 220.433 69.164C215.969 69.164 211.073 78.092 209.345 81.548C215.537 80.396 221.873 76.508 221.873 70.46ZM372.571 37.916C372.427 37.628 372.283 37.484 371.995 37.484C371.851 37.34 371.707 37.34 371.707 37.34C371.275 36.9081 370.987 36.1881 370.987 35.6121C370.987 32.8761 372.283 31.868 374.443 31.292C375.451 30.86 376.603 31.004 377.755 30.86H381.067C383.371 30.86 385.819 30.716 388.123 30.716C390.859 30.716 392.875 34.172 392.875 36.9081C392.875 37.916 391.291 40.364 388.555 43.244C386.395 45.98 383.947 48.86 382.939 50.156C370.843 65.708 360.043 81.98 349.675 98.8281C348.955 99.8361 347.227 103.004 345.355 106.316C343.483 109.628 341.899 112.076 341.467 112.508C341.035 112.94 340.603 113.084 339.883 113.084C337.003 113.084 325.051 113.084 323.323 112.076C322.027 111.5 321.595 111.356 321.595 109.772C321.595 107.612 322.747 106.172 325.195 105.74C328.651 105.02 332.107 105.02 335.995 105.02H336.427L336.571 104.732C346.507 83.564 363.643 57.212 378.619 39.212L379.195 38.348L378.331 38.204C376.171 37.772 374.731 37.916 372.571 37.916Z" fill="#E23EA1"/>
<path d="M288.672 42.668C277.296 42.668 261.888 51.596 253.824 60.524C250.8 63.98 247.344 69.02 247.344 73.772C247.344 77.804 252.528 80.828 256.848 82.2681C261.312 83.852 262.896 84.14 265.92 84.716C276.864 87.02 280.32 91.1961 280.32 102.86C280.32 115.532 264.336 119.852 256.272 119.852C248.352 119.852 237.84 116.396 237.84 104.876C237.84 103.58 237.984 101.996 238.416 100.7C238.992 99.4041 239.712 98.2521 241.44 98.2521C243.024 98.2521 243.6 100.844 243.6 101.996C243.6 107.324 251.376 108.764 255.552 108.764C261.456 108.764 273.408 106.172 273.408 98.396C273.408 97.388 272.112 96.956 271.536 96.5241C270.384 95.9481 268.944 95.804 268.368 95.372C266.064 94.796 263.76 94.5081 260.88 93.9321C252.24 92.3481 242.88 89.036 241.008 79.244C240.432 76.364 239.856 73.34 239.856 70.316C239.856 51.02 268.8 29.996 287.808 29.996C300.336 29.996 301.92 37.772 303.504 47.852C304.08 50.588 304.512 53.18 304.512 55.052C304.512 65.708 290.256 77.9481 281.616 77.9481C278.736 77.9481 274.128 75.788 274.128 71.324C274.128 69.02 274.992 68.876 277.152 68.876C277.296 69.02 277.584 69.02 278.016 69.02C281.76 69.02 286.8 64.844 289.68 61.964C293.28 58.508 296.592 53.6121 296.592 47.996C296.592 43.388 292.56 42.668 288.672 42.668Z" fill="#80C0DC"/>
</svg>
